<?xml version="1.0" encoding="utf-8"?>
<!-- Generator: Adobe Illustrator 12.0.1, SVG Export Plug-In . SVG Version: 6.00 Build 51448)  -->
<!DOCTYPE svg PUBLIC "-//W3C//DTD SVG 1.1//EN" "http://www.w3.org/Graphics/SVG/1.1/DTD/svg11.dtd" [
	<!ENTITY ns_svg "http://www.w3.org/2000/svg">
	<!ENTITY ns_xlink "http://www.w3.org/1999/xlink">
]>
<svg  version="1.1" id="Ebene_1" xmlns="&ns_svg;" xmlns:xlink="&ns_xlink;" width="980.688" height="731.402"
	 viewBox="0 0 980.688 731.402" overflow="visible" enable-background="new 0 0 980.688 731.402" xml:space="preserve">
<g>
	<path fill="#007F31" d="M565.43,638.531l-4.939,12.197c6.582,7.563,15.474,12.173,26.343,14.487l17.124,2.3
		c5.273,0.986,8.564,2.632,10.21,5.264c3.62,5.928,0.329,8.569-9.219,8.242l-1.647-3.623c-0.66-0.996-1.976-1.65-3.951-2.314
		l-7.904,0.337c-1.644,0.981-1.644,2.632,0,5.273c1.315,2.293,4.279,3.94,8.891,4.607c2.965,11.855,8.23,20.085,15.809,24.367
		c7.9,5.598,15.146,6.582,21.074,3.296c1.978-0.993,2.305-2.642,1.65-5.273c-0.662-2.959-2.964-4.946-7.578-5.591
		c-6.255-0.664-8.232,0.645-5.601,4.6c-4.606,0.337-8.892-1.968-13.169-6.914c-3.291-4.277-5.601-8.895-7.246-14.484l7.905-0.33
		l7.571-2.3c3.293-1.65,4.284-4.619,2.963-8.569c-1.315-4.292-3.952-7.251-7.897-8.563l-13.511-2.959
		c-5.596-0.99-10.532-2.312-14.152-3.949C577.615,654.342,570.042,647.757,565.43,638.531z"/>
	<path fill="#007F31" d="M347.427,675.421l7.248,2.305l7.573,0.664c-1.318,5.591-3.626,10.537-7.25,14.487
		c-3.618,4.606-8.23,6.909-12.841,6.909c2.308-3.623,0.661-5.262-5.925-4.607c-4.285,0.657-6.918,2.305-7.576,4.607
		c-0.328,1.978,0.326,3.625,1.977,5.275c2.306,1.976,5.6,2.63,10.536,2.303c3.951-0.664,7.575-1.648,10.538-3.623
		c7.577-4.946,12.847-13.496,15.811-25.352c5.268-0.337,8.561-1.66,9.878-4.287c1.314-2.307,1.314-4.292-0.331-5.93
		c-1.318-1.321-3.951-1.976-7.901-0.984c-1.979,0.327-3.624,1.313-4.283,2.622l-1.976,4.292c-9.549,0.327-12.843-2.307-9.549-8.232
		c1.976-2.642,5.267-4.609,10.539-5.273l17.126-2.305c6.582-1.309,14.159-5.262,22.394-11.528l-1.653-13.491
		c-5.268,8.23-12.51,14.484-21.402,18.765c-3.622,1.978-8.563,2.959-14.819,3.626l-14.159,2.302c-4.28,1.65-6.587,4.292-7.903,8.56
		C342.488,670.813,343.806,673.772,347.427,675.421z"/>
	<path fill="#007F31" d="M714.278,565.763c-5.928,1.309-10.54,4.604-13.177,10.532l-19.756-5.599l6.585,11.855l9.88,1.312
		c0.664,0.337,1.318,0.664,1.318,1.646l0.661,4.292c3.948,13.833,12.513,23.047,26.016,27.988l9.549,1.978
		c0.659-1.648-0.327-6.582-2.637-14.497c-7.573-2.292-13.169-4.935-16.465-8.232c-2.629-2.959-4.607-5.915-5.598-9.214
		c-0.989-2.959-0.989-5.928,0-8.896c0.99-3.286,2.639-5.591,5.266-6.582L714.278,565.763z"/>
	<path fill="#007F31" d="M764.336,568.731l3.291-3.625c-5.926-3.963-13.172-6.595-21.741-7.586
		c-8.887-1.323-17.124-0.317-25.026,2.313l2.637,8.559c5.6-1.647,12.849-0.993,20.746,1.976c3.953,1.65,7.578,4.28,10.543,8.56
		l3.295,6.255c1.316,2.642,1.644,4.619,0.984,5.94c-0.33,0.98-1.978,1.647-5.269,2.292l-10.542,1.321
		c-9.878-0.33-16.789-3.613-20.088-9.227c-0.33-0.645-2.307-0.981-6.582-1.309c0,1.648,0.33,2.969,1.318,3.953
		c1.973,2.969,3.95,5.261,6.587,6.918c5.928,3.616,13.833,5.921,23.379,6.585c5.928,0.327,10.866-0.664,14.487-2.305l1.98,5.918
		l-8.23,1.987c-6.59,0.654-11.863,0.317-15.809,0c1.316,2.629,1.971,5.591,1.971,8.56h12.844c8.893-1.323,14.817-2.969,17.457-5.601
		c-0.335-3.625-1.316-7.238-2.969-10.864c6.594-1.646,10.871-3.296,12.189-4.616c-1.318-6.582-5.271-13.504-11.86-20.413
		L764.336,568.731z"/>
	<path fill="#007F31" d="M409.337,681.021c3.62-2.969,7.902-4.292,12.847-4.292c5.264,0,9.215,3.635,11.195,10.547l4.609-1.318
		c-0.661-5.93-2.308-10.21-5.601-13.179c1.321-2.295,4.282-5.591,9.552-9.214c-2.964-3.623-5.27-6.919-6.586-10.207l-8.233,14.814
		c-0.327,0.666-1.318,0.993-2.306,0.666l-3.952-0.994c-12.513-0.656-22.721,3.951-30.294,13.177c-2.968,4.28-4.282,6.909-3.953,8.22
		l12.84,1.004C401.433,686.949,404.728,683.98,409.337,681.021z"/>
	<path fill="#007F31" d="M418.229,684.308c-1.646,0-3.622,0.327-5.271,1.65c-3.947,2.969-6.585,6.255-8.562,9.878
		c-1.645,3.626-2.636,7.905-2.304,12.849l-5.93,1.321c-0.654-5.61-0.326-10.544,1.648-15.163l-4.941,0.336h-4.938
		c-1.315,2.635-1.974,5.604-2.633,8.89c-0.985,7.246-0.661,12.52,1.318,16.8l8.892,0.656l1.973,8.887
		c9.88,1.648,20.088-3.286,31.289-14.487c7.571-7.905,11.525-16.462,11.525-25.032l-6.916,1.321
		c0.654,5.271-1.648,10.532-6.585,15.479c-4.94,5.273-9.554,7.905-13.836,7.905c-5.597-11.528-3.62-21.072,5.271-28.32l3.294-2.305
		L418.229,684.308z"/>
	<path fill="#007F31" d="M214.056,583.216c-0.661-0.993-0.988-1.32-1.649-1.32c-2.961,0.656-6.256,2.969-10.208,6.922
		c-4.278,4.27-6.588,7.575-7.242,10.534c0.327,1.312,2.302,3.286,6.913,5.918c4.612,2.642,8.561,3.952,12.186,4.616
		c3.952-6.582,7.903-11.525,11.525-15.15l-9.548-8.558L214.056,583.216z"/>
	<path fill="#007F31" d="M332.277,544.681c-1.318,2.969,0,7.576,3.625,12.84c-17.456-0.317-30.626,3.95-39.188,13.176
		c1.315,4.944,4.612,8.895,10.21,11.526c-4.943,2.305-9.553,5.931-13.834,11.855c-2.307,2.632-4.938,9.226-8.232,19.434
		c4.284,0.981,8.563,2.632,12.845,5.601l11.195,6.909c9.549,4.946,20.747,5.601,33.921,1.65l-2.635,12.837l23.054-0.654
		c8.56-3.296,14.817-8.887,18.109-16.792l6.256,9.87c17.786-14.814,20.091-31.604,6.261-50.381l-6.588,0.664l-11.196,1.966
		c-1.647,15.153-3.951,25.361-7.245,29.978l-3.621-7.248c1.642-11.855,1.972-17.783,0.326-17.783h-0.326
		c-12.846,4.607-31.287,9.551-55.657,13.833l6.585-5.601l25.358-8.889l21.737-8.895c-6.262-2.305-14.823-3.613-26.021-3.955
		l3.624-4.277l14.492,0.664c5.268,0.327,11.195,1.313,17.454,2.949l21.078-1.636l0.656-2.305l0.99-5.273
		c1.316-7.575-1.322-13.833-7.907-19.095c-7.574-5.938-20.084-9.553-37.209-10.871l0.987,3.296c0.659,2.302,0.987,3.296,0.659,3.296
		l-8.894-0.337C339.851,543.033,336.232,543.37,332.277,544.681z"/>
	<path fill="#007F31" d="M572.668,561.808l6.268,18.439l25.681,2.969l29.966-14.157l6.59,5.264c-6.59,0-15.481,4.277-26.676,12.181
		c13.504,5.93,31.614,11.857,54.993,18.439l4.614,6.592c-20.42-3.296-42.485-9.551-66.191-18.12c-1.648,0-1.975,8.242-0.991,24.704
		l-1.973,6.582c-3.955-4.934-5.933-15.808-5.933-32.268l-16.467-2.632l-9.215,0.654c-8.564,10.208-5.93,25.688,8.563,46.768
		l9.878-10.547c10.532,15.156,25.684,21.738,45.444,19.761c1.978-3.613,2.959-8.56,2.305-14.16
		c12.515,5.273,24.697,4.282,36.551-3.296l12.849-9.868c4.612-3.296,8.232-5.601,10.866-6.265
		c-7.902-13.496-17.783-22.72-29.639-27.339c6.582-4.277,9.549-6.909,8.23-8.221c-0.654-3.623-5.269-8.229-14.487-13.83
		c1.318-2.314,1.978-3.296,2.3-3.296c-6.25-7.905-18.439-10.21-35.562-7.251c0-2.629,1.313-5.928,3.291-8.887
		c-10.864-4.617-20.088-6.582-28.32-6.265c-15.801,1.321-26.348,4.956-30.952,11.201
		C571.692,552.911,571.026,557.203,572.668,561.808z"/>
	<path fill="#007F31" d="M567.405,581.896c-2.305-9.224-4.282-15.479-5.594-18.777c-2.641-5.598-6.594-9.553-11.862-11.855
		l6.257-5.588c-15.803-16.465-38.197-18.123-66.516-4.609l3.945,19.424c7.905,1.975,12.844,3.623,15.151,4.617
		c2.305,0.983,9.883,5.59,22.065,13.82l-0.662,5.601c-12.182-8.887-23.711-12.839-35.231-12.183l-0.986,20.425l23.047,14.15
		l3.952,9.551l-3.952-0.654l-23.711-14.16c-2.631,15.806-1.974,32.271,1.65,50.708l-3.296,8.232
		c-4.939-14.16-7.242-24.355-7.242-30.623l-1.317-25.349c-2.307,0.317-4.609,1.312-6.586,3.286l-13.833,13.166v-6.911
		c3.957-5.591,7.575-9.541,10.541-12.51c3.292-2.642,6.256-4.946,8.889-6.255c-0.329-8.898,0.33-16.475,1.315-22.729l-5.264,0.337
		c-3.295,0.656-6.59,1.968-10.54,3.613c-6.585,3.299-14.159,8.242-22.064,14.824l-4.28-2.313l9.877-9.88
		c3.293-3.296,6.917-6.245,10.869-8.558c5.928-3.298,12.843-6.257,20.746-8.232l-1.317-13.166l0.658-8.569l-6.916-1.976
		c-15.146-6.254-29.637-7.248-42.48-2.302c-11.855,4.277-19.761,11.526-24.699,22.388l15.15,12.85
		c-2.306,1.977-5.27,6.584-8.562,13.493c-3.624,7.251-5.27,13.179-5.929,17.796c-1.317,14.484,0.332,27.653,5.599,39.519
		c4.281-0.339,8.892-1.65,13.831-3.965l10.868-7.236c0,8.56,1.318,15.469,3.949,21.069c3.625,8.232,10.21,14.824,20.091,20.752
		c0.657,0.33,1.316,0,1.974-1.32c0.33-0.982,0.989-1.648,1.65-1.312c1.971,5.264,6.253,10.21,12.84,14.487
		c7.904,5.273,12.182,8.889,13.827,10.864c7.905-5.591,16.136-16.802,24.372-33.255c0.328-0.324,2.298,0.984,6.256,3.616
		c4.938-11.519,6.589-22.065,4.611-31.279l10.537,5.591l12.847,4.279c4.604-8.874,7.239-16.462,8.232-22.053l0.654-7.576
		c-1.647-15.808-5.601-24.037-12.188-25.031C554.229,588.817,560.491,586.178,567.405,581.896z"/>
	<path fill="#007F31" d="M575.632,731.402c0.659-1.321,1.328-4.604,1.982-9.878h4.935c0.671-6.258,0-11.519-1.644-15.809
		l-2.964,0.328l-4.607,1.32c-6.584,1.32-11.523,1.32-15.48,0c0.662,4.937,0,10.535-1.982,17.129
		c2.645,1.975,6.268,3.623,11.533,5.273L575.632,731.402z"/>
	<path fill="#007F31" d="M234.473,558.512c-0.657,0.327-0.657,0.657-0.657,0.983l4.605,8.896l3.953-1.32l7.245-0.981l8.893,1.309
		c2.637,0.993,4.937,2.305,6.255,3.962c1.319,1.648,1.976,2.962,1.649,4.28c0,3.286-2.306,5.918-6.917,8.223
		c-2.632,1.646-5.927,2.314-9.22,2.314c-3.622,0-8.231-0.996-13.501-2.962l-6.258-4.943l-3.95-4.607
		c0-0.656,2.305-1.977,6.584-3.962l-3.949-4.937c-3.623,1.65-7.245,3.625-10.869,5.93c-1.648,1.321-2.302,2.313-1.648,3.626
		l5.929,6.909c7.245,8.24,15.48,12.183,25.028,12.183l5.269-0.327c3.954-0.317,6.586-0.984,8.236-2.305l6.255,2.305
		c-1.317,1.648-3.622,3.306-6.917,4.619l-11.524,2.3l-2.636,0.329l-14.16-2.969l-4.94,4.944l0.989,0.667
		c4.612,1.965,9.55,2.959,15.149,2.959h3.949l3.295,3.949c-2.633,1.321-6.256,1.979-10.869,1.979
		c-4.938,0-10.206-0.984-15.476-2.972l-1.315-0.654l-1.322,2.642l-0.984,1.65c-0.989,1.636-1.649,2.629-0.989,3.286
		c2.633,1.646,6.585,2.302,10.866,2.302l5.926-0.656l-1.315,4.937c8.234-0.327,16.464-2.959,24.368-7.905
		c6.917-4.277,12.185-8.887,15.809-14.158c4.28-5.6,6.585-10.863,6.913-16.135l12.518,0.327l-5.597-9.214l-0.989-0.337l-6.259,0.664
		h-0.985c-1.648-4.619-4.943-8.569-10.212-11.855c-8.232-4.616-16.462-6.909-24.369-6.909
		C242.047,556.876,238.096,557.521,234.473,558.512z"/>
	<path fill="#007F31" d="M554.563,666.197l-7.905,0.327l-6.587,0.991l-4.939-7.9l-5.6,9.551l3.298,3.95l-3.628,5.273
		c-4.939,10.852-4.282,21.396,1.65,31.934c5.269,8.896,10.535,13.504,15.474,14.497l2.642-4.946
		c1.971-4.932,2.964-8.896,2.964-12.51c-4.609-1.648-8.235-4.279-11.201-8.232c-1.976-2.303-3.618-5.271-4.609-8.24l-0.329-5.92
		l0.654-2.957c1.65-2.641,3.293-4.289,4.611-5.285l13.172-0.654c5.275,2.632,8.239,4.946,9.553,7.251
		c2.969,4.935,3.953,8.887,2.632,11.853c-3.291,0.984-6.909,0.984-10.864-0.336c-3.291-0.654-5.933-2.957-7.902-5.916l-6.26,1.318
		l3.295,4.934c5.931,6.585,15.149,8.563,27.337,5.931l6.582-1.978c2.632-0.991,3.948-1.975,3.948-2.969
		c-1.316-4.277-2.633-7.566-4.275-9.878l4.275-1.978c-4.935-6.909-9.881-11.528-15.477-14.497
		C564.77,668.839,560.491,667.516,554.563,666.197z"/>
	<path d="M745.232,230.191v30.297H235.458v-30.297L29.313,252.584L0.332,327.337c7.241,7.577,13.171,16.795,17.782,27.664
		c3.625,8.232,5.269,17.783,5.269,28.982c0,11.191-1.644,20.732-5.269,29.301c-4.61,10.545-10.541,19.422-18.114,27l28.982,73.765
		l206.476,22.402v-31.289h509.774v31.289l206.481-22.402l28.975-73.765c-7.238-7.578-13.171-16.455-17.785-27.324
		c-3.618-8.563-5.591-18.115-5.591-28.977c0-10.872,1.973-20.424,5.591-28.982c4.614-10.868,10.547-20.087,17.785-27.664
		l-29.309-74.753L745.232,230.191z"/>
	<path fill="#FFFFFF" d="M760.383,246.656v14.492l163.006,13.499l1.32,1.321H55.984l1.319-1.321l163.339-13.499v-14.492
		L40.506,266.085l-24.042,59.28c14.162,16.465,21.409,35.891,21.409,58.619c0,21.408-7.247,40.492-21.409,57.292l23.716,59.604
		l180.461,19.106v-14.487L57.303,492.323l-1.319-1.321h868.726l-1.32,1.321l-163.006,13.176v14.487L940.52,500.88l23.703-59.604
		c-14.157-16.8-21.071-35.884-21.071-57.292c0-20.75,6.914-40.181,21.071-58.619l-24.033-59.28L760.383,246.656z"/>
	<path d="M949.405,323.717l-15.467-36.223H46.765l-15.476,36.223c12.84,17.122,19.426,37.211,19.426,60.267
		c0,22.39-6.586,42.141-19.426,58.942l15.476,36.548h887.173l15.796-36.548c-13.174-16.802-19.761-36.553-19.761-58.942
		C929.973,360.928,936.56,340.838,949.405,323.717z"/>
	<polygon fill="#E2001A" points="304.617,207.799 289.466,207.799 289.466,211.75 294.406,211.75 294.406,228.872 299.674,228.872 
		299.674,211.75 304.617,211.75 	"/>
	<path fill="#E2001A" d="M314.497,219.654h1.973l2.634,9.218h5.272l-3.625-10.209c2.637-0.986,3.625-2.632,3.625-4.937
		c0-3.953-2.306-5.928-6.918-5.928h-8.232v21.073h5.271V219.654L314.497,219.654z M315.485,216.363L315.485,216.363h-0.988v-4.613
		h0.988c2.3,0,3.292,0.657,3.292,2.304C318.777,215.702,317.785,216.363,315.485,216.363z"/>
	<path fill="#E2001A" d="M339.851,207.799h-7.245l-4.938,21.073h4.609l0.991-4.279h4.94l0.985,4.279h5.271L339.851,207.799
		L339.851,207.799z M335.902,212.076L335.902,212.076l1.313,8.893h-3.289l1.644-8.893H335.902z"/>
	<path fill="#E2001A" d="M354.998,207.799h-5.924v21.073h6.585c6.257,0,9.22-3.622,9.22-10.864
		C364.879,211.092,361.587,207.799,354.998,207.799L354.998,207.799z M354.998,224.922L354.998,224.922h-0.655v-13.5h0.655
		c2.636,0,3.955,2.305,3.955,6.255C358.953,222.618,357.633,224.922,354.998,224.922z"/>
	<polygon fill="#E2001A" points="383.322,211.75 383.322,207.799 369.821,207.799 369.821,228.872 383.322,228.872 383.322,224.593 
		375.088,224.593 375.088,219.984 380.688,219.984 380.688,216.031 375.088,216.031 375.088,211.75 	"/>
	<polygon fill="#E2001A" points="621.741,207.799 619.104,219.654 618.777,219.654 616.799,207.799 609.231,207.799 
		609.231,228.872 613.181,228.872 613.181,212.74 616.799,228.872 619.763,228.872 623.715,213.065 623.715,228.872 
		628.989,228.872 628.989,207.799 	"/>
	<path fill="#E2001A" d="M633.596,228.872h4.611l0.989-4.279h4.938l0.657,4.279h5.601l-4.609-21.073h-6.914L633.596,228.872
		L633.596,228.872z M641.829,212.076L641.829,212.076l1.646,8.893h-3.623L641.829,212.076z"/>
	<path fill="#E2001A" d="M660.603,219.654h1.646l2.629,9.218h5.273l-3.625-10.209c2.637-0.986,3.625-2.632,3.625-4.937
		c0-3.953-2.305-5.928-6.916-5.928h-8.237v21.073h5.605V219.654L660.603,219.654z M660.603,211.75L660.603,211.75h0.657
		c2.634,0,3.617,0.657,3.617,2.304c0,1.648-0.983,2.31-3.295,2.31h-0.979V211.75z"/>
	<polygon fill="#E2001A" points="685.959,207.799 680.686,216.689 680.686,207.799 675.422,207.799 675.422,228.872 
		680.686,228.872 680.686,222.945 682.996,219.654 685.959,228.872 691.225,228.872 686.614,214.713 691.225,207.799 	"/>
	<polygon fill="#E2001A" points="616.799,92.538 519.329,92.538 489.03,0 458.732,92.538 361.258,92.538 440.294,150.167 
		409.998,243.034 489.03,185.406 568.069,243.034 537.766,150.167 	"/>
	<path fill="#FFFFFF" d="M256.537,347.095c-11.529,1.976-20.747,7.906-27.994,16.795c-7.571,9.221-11.195,19.755-11.195,31.285
		c0,13.83,3.954,25.358,11.526,34.572c7.245,8.232,16.465,13.843,28.319,16.475c10.211,2.629,20.749,1.636,31.616-2.969
		c11.2-4.279,19.103-10.547,23.712-19.424c0.987-2.313,0.328-4.617-1.648-7.256c-1.976-2.632-4.942-3.613-8.892-3.289
		c-6.256,6.922-12.84,11.868-19.761,13.831l-15.477,0.654c-7.245-1.309-12.186-5.589-14.489-12.183
		c-0.988-2.627,0-4.604,2.636-4.932c3.622-0.33,12.844-3.296,27.661-9.227c10.21-3.625,18.11-7.248,23.379-10.861
		c5.269-3.623,6.261-8.232,3.955-14.16c-4.609-9.882-10.865-17.787-18.772-23.051C280.908,346.439,269.378,344.463,256.537,347.095
		L256.537,347.095z M280.249,376.08L280.249,376.08c1.313,4.277,1.313,7.565-0.333,9.868c-1.313,1.65-4.281,3.299-8.561,4.619
		l-8.232,2.959l-8.889,1.975c-2.31,0-3.955-1.32-4.614-3.952c-1.318-3.623-1.318-8.887,0.332-15.469
		c1.973-7.249,5.267-11.859,9.547-13.176C270.041,359.941,276.953,364.221,280.249,376.08z"/>
	<path fill="#FFFFFF" d="M725.805,347.095c-11.201,1.976-20.749,7.577-27.995,16.795c-7.243,9.221-10.859,19.429-10.859,31.285
		c0,13.83,3.948,25.358,11.523,34.572c6.917,8.232,16.465,13.843,27.991,16.475c10.534,2.629,21.076,1.636,31.938-2.969
		c10.872-4.279,18.772-10.547,23.717-19.424c0.656-2.313,0-4.617-1.98-7.256c-1.973-2.632-4.941-3.613-8.56-3.289
		c-6.26,6.922-13.177,11.868-20.088,13.831l-15.146,0.654c-7.583-1.309-12.188-5.589-14.819-12.183
		c-0.994-2.627,0-4.604,2.632-4.932c3.95-0.669,13.171-3.625,27.663-9.227c9.551-3.295,17.454-6.911,23.704-10.861
		c4.946-3.623,6.265-8.232,3.633-14.16c-4.614-9.882-10.874-17.787-18.774-23.051C750.5,346.439,738.972,344.463,725.805,347.095
		L725.805,347.095z M749.516,376.08L749.516,376.08c1.644,4.606,1.644,7.903-0.334,9.868c-1.313,1.65-3.95,3.299-8.23,4.619
		l-8.234,2.959l-9.221,1.975c-1.971,0-3.621-1.32-4.612-3.952c-1.315-3.623-1.315-8.887,0.332-15.469
		c1.978-7.249,4.941-11.859,9.546-13.176C739.304,359.941,746.223,364.221,749.516,376.08z"/>
	<path fill="#FFFFFF" d="M522.947,347.095c-11.521,1.976-20.747,7.906-28.32,16.795c-7.241,9.221-11.197,19.755-11.197,31.285
		c0,13.83,4.286,25.358,11.852,34.572c7.251,8.232,16.468,13.843,27.993,16.475c10.542,2.629,21.082,1.636,31.943-2.969
		c10.869-4.279,18.774-10.547,23.719-19.424c0.98-2.313,0.319-4.617-1.653-7.256c-2.305-2.632-4.937-3.613-8.887-3.289
		c-6.257,6.922-12.847,11.868-20.088,13.831l-15.153,0.654c-7.571-1.309-12.184-5.589-14.817-12.183
		c-0.989-2.627,0-4.277,2.962-4.932c3.62-0.669,12.849-3.625,27.668-9.227c9.219-3.295,17.119-6.911,23.379-10.861
		c5.269-3.623,6.255-8.232,3.945-14.16c-4.6-9.882-10.861-17.787-18.765-23.051C547.322,346.439,535.792,344.463,522.947,347.095
		L522.947,347.095z M546.658,376.08L546.658,376.08c1.318,4.277,1.318,7.565-0.332,9.868c-1.313,1.65-4.28,3.299-8.56,4.619
		l-8.234,2.959l-9.222,1.975c-1.973,0-3.623-1.32-4.272-3.952c-1.65-3.623-1.32-8.887,0.322-15.469
		c1.648-7.249,4.939-11.859,9.551-13.176C536.446,359.941,543.367,364.221,546.658,376.08z"/>
	<path fill="#FFFFFF" d="M148.523,315.155l-3.623-0.661h-44.79l-2.961,0.33c-0.988,0.66-1.317,2.306-1.975,5.601
		c-0.331,3.292,0,4.94,0.987,5.265c1.977,1.321,3.949,2.309,6.255,2.966c3.295,1.318,4.943,6.258,4.943,14.821v72.11
		c0,4.946-0.659,8.889-1.978,10.874c-0.658,1.65-1.973,2.959-3.953,3.626l-5.924,3.285c-0.662,0.994-0.662,3.297-0.331,6.595
		c0.658,3.286,0.987,4.935,1.975,5.259l3.625,0.656h45.775l3.949-0.656c0.989,0,1.318-1.636,1.977-5.259
		c0.331-3.298,0-5.601-0.658-6.595l-5.597-3.285c-1.979-0.667-3.624-1.976-4.282-3.626c-0.989-1.985-1.646-5.928-1.646-10.874
		l0.327-28.982c0-1.638,0.987-2.621,2.637-2.621h25.354c1.649,0,2.635,0.983,2.635,2.621l0.33,28.982
		c0,4.946-0.659,8.569-1.974,10.874c-0.662,1.309-1.976,2.632-4.282,3.626l-6.258,3.285l0.329,6.258
		c0.332,3.623,0.991,5.271,1.647,5.596l2.635,0.332h48.08l2.963-0.332c0.658-0.324,1.319-1.973,1.974-5.259
		c0.331-3.298,0-5.601-0.654-6.595l-5.602-3.285c-1.976-0.667-3.622-1.976-4.28-3.626c-0.987-1.985-1.646-5.928-1.646-10.874v-72.11
		c0-8.563,1.646-13.502,4.28-14.821l6.256-2.966c1.321-0.325,1.646-1.973,1.321-4.94c-0.662-3.619-0.991-5.594-1.649-5.925h-3.291
		h-44.457h-3.624c-0.662,0.331-1.315,2.306-1.645,5.601c-0.332,3.292,0.33,5.265,0.982,5.265l4.944,2.966
		c2.634,1.318,3.95,6.258,3.95,14.821l-0.33,17.779c0,1.978-0.986,2.965-2.635,2.965h-25.354c-1.649,0-2.637-0.987-2.637-2.965
		l-0.327-17.779c0-8.563,1.314-13.502,3.622-14.821c1.973-0.658,3.622-1.646,4.941-2.966c0.985-0.325,1.315-1.973,0.985-5.265
		L148.523,315.155z"/>
	<path fill="#FFFFFF" d="M321.409,362.904l1.98,1.317c2.301,1.318,3.291,5.268,3.291,11.522v41.821
		c0,7.249-1.976,11.528-5.271,12.849l-2.632,1.648c-1.974,0.645-2.965,2.305-2.307,4.282l0.333,6.255
		c0.655,1.973,1.974,2.959,4.605,2.959h41.827c2.303,0,3.618-0.986,4.281-2.959l0.654-6.255c0.332-1.978-0.327-3.638-2.305-4.282
		l-2.631-1.648c-3.626-1.647-5.603-5.938-5.603-12.849v-63.882c0-2.302-0.986-3.293-3.291-3.293h-31.945
		c-2.307,0-3.293,0.991-3.621,2.635l-0.331,2.964v3.291C318.118,360.598,319.436,361.915,321.409,362.904z"/>
	<path fill="#FFFFFF" d="M327.667,339.854c3.291,3.292,7.247,4.609,11.856,4.609s8.889-1.317,12.183-4.609
		c3.291-2.963,4.94-6.918,4.94-11.525c0-4.285-1.649-8.234-4.94-11.528c-3.293-3.291-7.573-4.609-12.183-4.609
		s-8.565,1.318-11.856,4.609c-3.291,2.964-4.939,6.917-4.939,11.528C322.728,332.936,324.376,336.891,327.667,339.854z"/>
	<path fill="#FFFFFF" d="M381.019,349.071c-1.649,0-2.966,0.991-3.294,2.964l-0.661,6.26c0,0.985,0.989,2.303,3.294,3.621
		l2.305,1.318c1.975,1.317,3.294,4.937,3.294,11.523v42.808c0,6.911-1.974,11.201-5.599,12.849l-2.633,1.648
		c-1.979,0.645-2.637,2.305-2.306,4.282l0.327,6.255c0.661,1.973,2.308,2.959,4.281,2.959h41.826c2.301,0,3.622-0.986,4.278-2.959
		l0.662-6.255c0.327-1.978-0.331-3.638-2.64-4.282c-0.658-0.664-1.646-0.994-2.301-1.648c-3.624-1.647-5.6-5.938-5.6-12.849v-33.919
		c0-9.553,3.952-14.814,11.854-15.805c2.634-0.325,4.28,0.329,6.256,1.973c2.306,1.977,3.625,4.279,3.625,7.914v49.388
		c0,6.585,2.306,11.528,6.917,15.153c3.949,2.957,8.888,4.28,14.159,4.28c10.868,0,18.441-3.95,22.393-12.51
		c0.658-1.66,0.329-3.626-1.646-5.928c-1.646-1.65-3.294-2.314-4.94-1.65l-4.612,2.632c-1.647,0.654-2.303-0.654-2.303-3.94
		l-0.33-51.06c0-14.151-5.598-22.712-16.467-26.337c-7.245-2.305-17.125-0.661-28.975,4.939l-4.944,2.306l-0.986-1.977
		c-1.319-2.635-2.634-3.954-4.282-3.954H381.019z"/>
	<path fill="#FFFFFF" d="M791.335,349.071c-1.644,0-2.959,0.991-3.62,2.964l-0.33,6.26c0,0.985,0.991,2.303,3.296,3.621l1.968,1.318
		c2.642,1.317,3.623,5.269,3.623,11.523v42.808c0,6.911-1.968,11.201-5.591,12.849l-2.64,1.648
		c-1.975,0.645-2.961,2.305-2.297,4.282v2.956l0.322,3.299c0.659,1.973,1.975,2.959,4.279,2.959h41.829
		c2.302,0,3.618-0.986,4.282-2.959l0.656-6.255c0.328-1.978-0.656-3.638-2.637-4.282l-2.302-1.648
		c-3.952-1.647-5.603-5.938-5.603-12.849v-33.919c0-9.553,3.952-14.814,11.862-15.805c2.3-0.325,4.272,0.329,6.25,1.973
		c2.302,1.977,3.291,4.279,3.291,7.914v49.388c0,6.257,2.31,11.528,7.249,15.153c3.952,2.957,8.887,4.28,14.16,4.28
		c11.193,0,18.449-3.95,22.067-12.51c0.654-1.66,0.654-3.626-1.328-5.928c-1.641-1.65-3.284-2.314-4.932-1.65l-4.614,2.632
		c-1.641,0.654-2.629-0.654-2.629-3.94v-51.06c0-14.151-5.604-22.712-16.463-26.337c-7.583-2.305-17.129-0.661-28.984,4.939
		l-4.941,2.306l-1.32-1.977c-0.977-2.635-2.303-3.954-3.948-3.954H791.335z"/>
	<path fill="#FFFFFF" d="M623.059,321.74c-0.327-4.94-2.635-7.246-7.241-7.246h-29.307c-2.314,0-3.63,0.99-3.962,2.636l-0.322,5.6
		c-0.33,1.314,0.993,2.635,2.963,3.62l3.294,1.979c2.962,1.315,4.277,5.266,4.277,11.525v77.711c0,7.249-1.644,11.528-5.273,12.849
		l-2.627,1.648c-1.979,0.645-2.634,2.305-2.312,4.282l0.671,6.255c0.322,1.973,1.97,2.959,4.268,2.959h41.501
		c2.303,0,3.626-0.986,4.275-2.959l0.659-6.255c0.332-1.978-0.327-3.638-2.305-4.282l-2.63-1.648
		c-3.952-1.647-5.93-6.584-5.93-15.15v-5.604l8.56-6.909l22.065,40.176c0.986,1.976,2.31,2.632,4.285,2.632h26.34
		c2.305,0,3.955-0.986,4.614-2.959l0.327-6.255c0.659-1.978-0.327-3.638-2.3-4.282l-4.616-1.975
		c-2.635-1.321-4.939-3.626-6.585-6.595l-23.05-42.148l14.153-13.503l6.26-5.267c2.637-1.646,5.269-2.964,7.573-3.295
		c1.32-0.326,1.978-2.632,1.648-6.915c-0.328-3.293-0.989-4.938-2.303-4.938l-2.637-0.332l-17.124,0.332l-18.77-0.332l-2.632,0.332
		c-1.323,0-1.982,1.644-2.31,4.938c-0.327,3.955,0,5.93,0.986,6.256l3.626,1.648c2.302,1.646,2.631,3.291,0.988,4.935l-9.546,9.885
		l-9.556,7.9V321.74z"/>
	<path fill="#FFFFFF" d="M866.094,309.227c-3.626,3.621-5.273,7.903-5.273,13.171c0,4.939,1.647,9.552,5.273,13.173
		c3.623,3.623,7.897,5.599,13.503,5.599c4.938,0,9.214-1.976,13.171-5.599c3.623-3.621,5.267-8.234,5.267-13.173
		c0-5.269-1.644-9.551-5.267-13.171c-3.957-3.622-8.232-5.269-13.171-5.269C873.992,303.958,869.717,305.605,866.094,309.227
		L866.094,309.227z M879.597,307.579L879.597,307.579c3.95,0,7.243,1.648,10.205,4.612c2.966,2.633,4.282,5.928,4.282,10.208
		c0,3.951-1.316,7.576-4.282,10.212c-2.962,2.96-6.255,4.603-10.205,4.603c-4.287,0-7.578-1.643-10.542-4.603
		c-2.961-2.637-4.282-6.261-4.282-10.212c0-4.28,1.321-7.574,4.282-10.208C872.019,309.227,875.31,307.579,879.597,307.579z"/>
	<path fill="#FFFFFF" d="M876.306,323.389l1.644,0.328c2.297,0,3.947,0.657,4.279,2.633l1.643,4.939h4.939l-1.646-4.939
		c-0.325-1.976-1.313-3.291-2.63-4.279c1.971-0.661,2.962-2.635,2.962-5.27c0-1.646-0.657-3.291-2.305-4.282l-3.626-1.315h-9.88
		v20.086h4.619V323.389L876.306,323.389z M876.306,319.436L876.306,319.436v-4.611h3.291c1.97,0,2.964,0.987,2.964,2.306
		c0,1.649-0.664,2.306-2.637,2.306H876.306z"/>
	<polygon points="491.663,192.98 490.677,191.993 417.899,245.669 419.544,245.669 	"/>
	<polygon points="626.35,94.186 624.705,94.186 545.671,151.815 575.305,243.034 576.631,243.034 546.99,152.474 	"/>
	<polygon points="497.592,0 496.277,0 524.919,87.599 526.241,87.599 	"/>
</g>
</svg>
